{"scene":0,"asset":{"generator":"ImageToStl.com","version":"2.0"},"scenes":[{"name":"Scene","nodes":[0]}],"nodes":[{"name":"Node0","children":[1,2,3]},{"name":"Node1","mesh":0},{"name":"Node2","mesh":1},{"name":"Node3","mesh":2}],"materials":[{"name":"x1","pbrMetallicRoughness":{"baseColorFactor":[0.85,0.85,0.85,1.0],"metallicFactor":0.05,"roughnessFactor":0.5},"doubleSided":true}],"meshes":[{"name":"Mesh0","primitives":[{"indices":2,"material":0,"attributes":{"POSITION":0,"NORMAL":1}}]},{"name":"Mesh0","primitives":[{"indices":5,"material":0,"attributes":{"POSITION":3,"NORMAL":4}}]},{"name":"Mesh0","primitives":[{"indices":8,"material":0,"attributes":{"POSITION":6,"NORMAL":7}}]}],"accessors":[{"bufferView":0,"componentType":5126,"count":1740,"type":"VEC3","min":[3.7742374,-29.672384,-8.843313],"max":[50.0,32.01278,8.843313]},{"bufferView":1,"componentType":5126,"count":1740,"type":"VEC3"},{"bufferView":2,"componentType":5123,"count":3480,"type":"SCALAR"},{"bufferView":3,"componentType":5126,"count":1632,"type":"VEC3","min":[-19.23716,-29.53086,-8.843313],"max":[27.049824,32.01272,8.843313]},{"bufferView":4,"componentType":5126,"count":1632,"type":"VEC3"},{"bufferView":5,"componentType":5123,"count":3252,"type":"SCALAR"},{"bufferView":6,"componentType":5126,"count":1104,"type":"VEC3","min":[-42.094173,-3.0067265,-8.843313],"max":[-18.645432,26.52994,8.843313]},{"bufferView":7,"componentType":5126,"count":1104,"type":"VEC3"},{"bufferView":8,"componentType":5123,"count":2208,"type":"SCALAR"}],"bufferViews":[{"target":34962,"buffer":0,"byteLength":20880,"byteOffset":0},{"target":34962,"buffer":0,"byteLength":20880,"byteOffset":20880},{"target":34963,"buffer":0,"byteLength":6960,"byteOffset":41760},{"target":34962,"buffer":0,"byteLength":19584,"byteOffset":48720},{"target":34962,"buffer":0,"byteLength":19584,"byteOffset":68304},{"target":34963,"buffer":0,"byteLength":6504,"byteOffset":87888},{"target":34962,"buffer":0,"byteLength":13248,"byteOffset":94392},{"target":34962,"buffer":0,"byteLength":13248,"byteOffset":107640},{"target":34963,"buffer":0,"byteLength":4416,"byteOffset":120888}],"buffers":[{"byteLength":125304,"uri":"data:application/octet-stream;base64,"}]}